<svg width="60" height="60" viewBox="0 0 60 60" fill="none" xmlns="http://www.w3.org/2000/svg">
<path d="M20 17.5C13.0964 17.5 7.5 23.0964 7.5 30C7.5 36.9035 13.0964 42.5 20 42.5H40C46.9035 42.5 52.5 36.9035 52.5 30C52.5 23.0964 46.9035 17.5 40 17.5H20ZM20 12.5H40C49.665 12.5 57.5 20.335 57.5 30C57.5 39.665 49.665 47.5 40 47.5H20C10.335 47.5 2.5 39.665 2.5 30C2.5 20.335 10.335 12.5 20 12.5ZM20 37.5C15.8579 37.5 12.5 34.1423 12.5 30C12.5 25.8577 15.8579 22.5 20 22.5C24.1421 22.5 27.5 25.8577 27.5 30C27.5 34.1423 24.1421 37.5 20 37.5Z" fill="white"/>
</svg>
